<svg width="30" height="21" viewBox="0 0 30 21" fill="none" xmlns="http://www.w3.org/2000/svg">
<path d="M17.3333 6.4C17.3333 6.27742 17.378 6.15143 17.4675 6.02203C17.5569 5.89266 17.6566 5.80753 17.7667 5.76667C18.4333 5.52222 19.1148 5.33333 19.8112 5.2C20.5075 5.06667 21.2399 5 22.0083 5C22.4885 5 22.9628 5.02778 23.431 5.08333C23.8992 5.13889 24.3556 5.22222 24.8 5.33333C24.9333 5.37778 25.0556 5.45994 25.1667 5.57983C25.2778 5.69974 25.3333 5.83463 25.3333 5.9845C25.3333 6.23928 25.25 6.43333 25.0833 6.56667C24.9167 6.7 24.7111 6.73333 24.4667 6.66667C24.0933 6.55556 23.7 6.47222 23.2867 6.41667C22.8733 6.36111 22.4444 6.33333 22 6.33333C21.3556 6.33333 20.7333 6.39444 20.1333 6.51667C19.5333 6.63889 18.9444 6.82222 18.3667 7.06667C18.0556 7.17778 17.8056 7.17222 17.6167 7.05C17.4278 6.92778 17.3333 6.71111 17.3333 6.4ZM17.3333 13.7333C17.3333 13.6043 17.378 13.4717 17.4675 13.3355C17.5569 13.1993 17.6566 13.1097 17.7667 13.0667C18.4333 12.8222 19.1148 12.6389 19.8112 12.5167C20.5075 12.3944 21.2399 12.3333 22.0083 12.3333C22.4885 12.3333 22.9628 12.3611 23.431 12.4167C23.8992 12.4722 24.3556 12.5556 24.8 12.6667C24.9333 12.7111 25.0556 12.7933 25.1667 12.9132C25.2778 13.0331 25.3333 13.168 25.3333 13.3178C25.3333 13.5726 25.25 13.7667 25.0833 13.9C24.9167 14.0333 24.7111 14.0667 24.4667 14C24.0933 13.8889 23.7 13.8056 23.2867 13.75C22.8733 13.6944 22.4444 13.6667 22 13.6667C21.3556 13.6667 20.7333 13.7222 20.1333 13.8333C19.5333 13.9444 18.9444 14.1222 18.3667 14.3667C18.0556 14.4778 17.8056 14.4778 17.6167 14.3667C17.4278 14.2556 17.3333 14.0444 17.3333 13.7333ZM17.3333 10.0667C17.3333 9.94409 17.378 9.8181 17.4675 9.6887C17.5569 9.55932 17.6566 9.4742 17.7667 9.43333C18.4333 9.18889 19.1148 9 19.8112 8.86667C20.5075 8.73333 21.2399 8.66667 22.0083 8.66667C22.4885 8.66667 22.9628 8.69444 23.431 8.75C23.8992 8.80556 24.3556 8.88889 24.8 9C24.9333 9.04445 25.0556 9.12661 25.1667 9.2465C25.2778 9.36641 25.3333 9.5013 25.3333 9.65117C25.3333 9.90594 25.25 10.1 25.0833 10.2333C24.9167 10.3667 24.7111 10.4 24.4667 10.3333C24.0933 10.2222 23.7 10.1389 23.2867 10.0833C22.8733 10.0278 22.4444 10 22 10C21.3556 10 20.7333 10.0611 20.1333 10.1833C19.5333 10.3056 18.9444 10.4889 18.3667 10.7333C18.0556 10.8444 17.8056 10.8389 17.6167 10.7167C17.4278 10.5944 17.3333 10.3778 17.3333 10.0667ZM6.93333 16.6667C8.12369 16.6667 9.28239 16.8056 10.4094 17.0833C11.5365 17.3611 12.6444 17.7778 13.7333 18.3333V4.1C12.7333 3.43333 11.6487 2.91667 10.4794 2.55C9.31008 2.18333 8.12807 2 6.93333 2C6.08889 2 5.26111 2.10556 4.45 2.31667C3.63889 2.52778 2.82222 2.78889 2 3.1V17.5667C2.68889 17.2556 3.47222 17.0278 4.35 16.8833C5.22778 16.7389 6.08889 16.6667 6.93333 16.6667ZM15.7333 18.3333C16.8444 17.7778 17.9333 17.3611 19 17.0833C20.0667 16.8056 21.2 16.6667 22.4 16.6667C23.2444 16.6667 24.1167 16.7333 25.0167 16.8667C25.9167 17 26.6889 17.1778 27.3333 17.4V3.1C26.5778 2.72222 25.7798 2.44444 24.9393 2.26667C24.0988 2.08889 23.2523 2 22.4 2C21.2 2 20.0389 2.18333 18.9167 2.55C17.7944 2.91667 16.7333 3.43333 15.7333 4.1V18.3333ZM14.7333 20.9667C14.5658 20.9667 14.4073 20.95 14.2577 20.9167C14.1081 20.8833 13.9778 20.8222 13.8667 20.7333C12.8222 20.0889 11.7128 19.5889 10.5384 19.2333C9.36403 18.8778 8.16233 18.7 6.93333 18.7C6.1214 18.7 5.32398 18.8 4.54107 19C3.75813 19.2 2.97778 19.4444 2.2 19.7333C1.68667 19.9778 1.19167 19.9444 0.715 19.6333C0.238333 19.3222 0 18.8778 0 18.3V2.86667C0 2.53333 0.0777778 2.22778 0.233333 1.95C0.388889 1.67222 0.622222 1.45556 0.933333 1.3C1.86667 0.855556 2.83772 0.527778 3.8465 0.316667C4.85526 0.105556 5.8842 0 6.93333 0C8.33333 0 9.69444 0.188889 11.0167 0.566667C12.3389 0.944444 13.5778 1.52222 14.7333 2.3C15.8667 1.52222 17.0833 0.944444 18.3833 0.566667C19.6833 0.188889 21.0222 0 22.4 0C23.4415 0 24.463 0.105556 25.4645 0.316667C26.4659 0.527778 27.4333 0.855556 28.3667 1.3C28.6778 1.45556 28.9167 1.67222 29.0833 1.95C29.25 2.22778 29.3333 2.53333 29.3333 2.86667V18.3C29.3333 18.9199 29.0833 19.3915 28.5833 19.7149C28.0833 20.0383 27.5889 20.0444 27.1 19.7333C26.3444 19.4222 25.5752 19.1722 24.7923 18.9833C24.0094 18.7944 23.2119 18.7 22.4 18.7C21.1939 18.7 20.0146 18.8778 18.8621 19.2333C17.7096 19.5889 16.6222 20.0889 15.6 20.7333C15.4889 20.8222 15.3585 20.8833 15.209 20.9167C15.0594 20.95 14.9008 20.9667 14.7333 20.9667Z" fill="url(#paint0_linear_3_161)"/>
<defs>
<linearGradient id="paint0_linear_3_161" x1="14.6667" y1="0" x2="14.6667" y2="20.9667" gradientUnits="userSpaceOnUse">
<stop stop-color="#F10017"/>
<stop offset="1"/>
</linearGradient>
</defs>
</svg>
