<svg width="94" height="38" viewBox="0 0 94 38" fill="none" xmlns="http://www.w3.org/2000/svg">
<path d="M0.12 37V3.736H19.944L19.128 9.352H7.992V18.184H17.688V23.8H7.992V37H0.12ZM40.7633 29.608C40.7633 30.568 40.8913 31.272 41.1473 31.72C41.4353 32.168 41.8833 32.504 42.4913 32.728L40.9073 37.672C39.3393 37.544 38.0593 37.208 37.0673 36.664C36.0753 36.088 35.3073 35.192 34.7633 33.976C33.0993 36.536 30.5393 37.816 27.0833 37.816C24.5553 37.816 22.5393 37.08 21.0353 35.608C19.5313 34.136 18.7793 32.216 18.7793 29.848C18.7793 27.064 19.8033 24.936 21.8513 23.464C23.8993 21.992 26.8593 21.256 30.7313 21.256H33.3233V20.152C33.3233 18.648 33.0033 17.624 32.3633 17.08C31.7233 16.504 30.6033 16.216 29.0033 16.216C28.1713 16.216 27.1633 16.344 25.9793 16.6C24.7953 16.824 23.5793 17.144 22.3313 17.56L20.6033 12.568C22.2033 11.96 23.8353 11.496 25.4993 11.176C27.1953 10.856 28.7633 10.696 30.2032 10.696C33.8513 10.696 36.5233 11.448 38.2193 12.952C39.9153 14.456 40.7633 16.712 40.7633 19.72V29.608ZM29.2913 32.392C31.0193 32.392 32.3633 31.576 33.3233 29.944V25.432H31.4513C29.7233 25.432 28.4273 25.736 27.5633 26.344C26.7313 26.952 26.3153 27.896 26.3153 29.176C26.3153 30.2 26.5713 31 27.0833 31.576C27.6273 32.12 28.3633 32.392 29.2913 32.392ZM53.1034 37.816C50.8954 37.816 49.1674 37.192 47.9194 35.944C46.7034 34.664 46.0954 32.856 46.0954 30.52V1.384L53.6794 0.567997V30.232C53.6794 31.288 54.1114 31.816 54.9754 31.816C55.4234 31.816 55.8394 31.736 56.2234 31.576L57.7114 36.952C56.3354 37.528 54.7994 37.816 53.1034 37.816ZM67.3534 37.816C65.1454 37.816 63.4174 37.192 62.1694 35.944C60.9534 34.664 60.3454 32.856 60.3454 30.52V1.384L67.9294 0.567997V30.232C67.9294 31.288 68.3614 31.816 69.2254 31.816C69.6734 31.816 70.0894 31.736 70.4734 31.576L71.9614 36.952C70.5854 37.528 69.0494 37.816 67.3534 37.816ZM93.2561 11.512V16.84L81.7361 31.24H93.4961L92.8241 37H72.9521V31.624L84.5201 17.224H73.9601V11.512H93.2561Z" fill="#F5F5F5"/>
</svg>
