<svg width="32" height="32" viewBox="0 0 32 32" fill="none" xmlns="http://www.w3.org/2000/svg">
<path d="M16.0333 29.3334L14.6667 25.3334H5.33332C4.55555 25.3334 3.91666 25.0834 3.41666 24.5834C2.91666 24.0834 2.66666 23.4445 2.66666 22.6667V5.33341C2.66666 4.55564 2.91666 3.91675 3.41666 3.41675C3.91666 2.91675 4.55555 2.66675 5.33332 2.66675H13.3333L14.5 6.64675H26.6667C27.4444 6.64675 28.0833 6.89549 28.5833 7.39298C29.0833 7.89049 29.3333 8.52619 29.3333 9.30008V26.6667C29.3333 27.4445 29.0839 28.0834 28.5852 28.5834C28.0864 29.0834 27.4491 29.3334 26.6733 29.3334H16.0333ZM9.55669 19.4667C11.0967 19.4667 12.3555 18.9692 13.3333 17.9741C14.3111 16.9791 14.8 15.6877 14.8 14.1001V13.5834C14.8 13.439 14.7776 13.3112 14.7329 13.2001H9.43332V15.2334H12.4333C12.2555 15.8767 11.9167 16.3764 11.4167 16.7326C10.9167 17.0887 10.3111 17.2667 9.59999 17.2667C8.73332 17.2667 7.98888 16.9524 7.36666 16.3238C6.74443 15.6952 6.43332 14.9206 6.43332 14.0001C6.43332 13.0796 6.74443 12.305 7.36666 11.6764C7.98888 11.0477 8.73046 10.7334 9.59139 10.7334C9.98875 10.7334 10.364 10.8056 10.7172 10.9501C11.0704 11.0945 11.3905 11.3112 11.6775 11.6001L13.3 10.0667C12.8555 9.57786 12.3 9.20008 11.6333 8.93341C10.9667 8.66675 10.2778 8.53341 9.56666 8.53341C8.05555 8.53341 6.77221 9.06675 5.71666 10.1334C4.6611 11.2001 4.13332 12.489 4.13332 14.0001C4.13332 15.5112 4.66339 16.8001 5.72352 17.8667C6.78363 18.9334 8.06136 19.4667 9.55669 19.4667ZM18.4802 20.1001L19.2333 19.4001C18.9222 19.0223 18.6333 18.6612 18.3667 18.3167C18.1 17.9723 17.8444 17.6001 17.6 17.2001L18.4802 20.1001ZM20.1398 18.4001C20.7701 17.6667 21.2485 16.9667 21.5749 16.3001C21.9013 15.6334 22.1208 15.1112 22.2333 14.7334H16.9333L17.3 16.1667H18.6333C18.8111 16.4934 19.0222 16.8473 19.2667 17.2284C19.5111 17.6095 19.8022 18.0001 20.1398 18.4001ZM17.3667 28.0001H26.6667C27.0444 28.0001 27.3611 27.8721 27.6167 27.616C27.8722 27.36 28 27.0428 28 26.6644V9.30008C28 8.9223 27.8722 8.60564 27.6167 8.35008C27.3611 8.09453 27.0444 7.96675 26.6667 7.96675H14.9333L16.4667 13.4001H19.1V11.9667H20.4667V13.4001H25.3667V14.7334H23.6333C23.4333 15.5779 23.1111 16.4018 22.6667 17.2051C22.2222 18.0084 21.7 18.756 21.1 19.4478L24.7333 23.0294L23.7667 24.0001L20.1333 20.4001L18.9333 21.6001L20.0333 25.3334L17.3667 28.0001Z" fill="url(#paint0_linear_3_157)"/>
<defs>
<linearGradient id="paint0_linear_3_157" x1="16" y1="2.66675" x2="16" y2="29.3334" gradientUnits="userSpaceOnUse">
<stop stop-color="#F10017"/>
<stop offset="1"/>
</linearGradient>
</defs>
</svg>
