<svg xmlns="http://www.w3.org/2000/svg" width="800" height="800" fill="none"><g clip-path="url(#a)"><path fill="url(#b)" d="m528.507 804.551-.845-90.831 214.326-209.586-218.213-208.237 47.532-48.324 227.999 218.406.694 74.611-271.493 263.961Z"/><path fill="url(#c)" d="M674.973 545.307 449.737 333.983l-.679-73.999L714.999-3.746l.826 90.085-209.427 210.439 213.225 203.953-44.65 44.576Z"/><g fill="#fff" filter="url(#d)"><path d="M0 552.582V245h125.897v38.733H55.954v89.616h57.088v39.113H55.954v140.12H0ZM195.116 556c-9.83 0-18.274-2.532-25.331-7.595-7.057-5.316-12.476-11.898-16.257-19.746-3.78-8.101-5.671-16.455-5.671-25.062 0-13.67 2.521-25.189 7.562-34.555 5.04-9.367 11.72-17.215 20.037-23.544 8.318-6.329 17.769-11.772 28.355-16.328a386.879 386.879 0 0 1 32.136-12.911v-18.987c0-6.329-.504-11.645-1.512-15.948-.756-4.304-2.395-7.595-4.915-9.873-2.269-2.279-5.923-3.418-10.964-3.418-4.285 0-7.813 1.013-10.586 3.038-2.52 2.025-4.411 4.936-5.671 8.734-1.008 3.544-1.638 7.721-1.89 12.531l-.756 13.29-48.771-1.898c.756-25.316 6.931-43.923 18.525-55.821 11.846-12.151 29.741-18.227 53.686-18.227 21.928 0 37.807 6.076 47.636 18.227 10.082 12.152 15.123 28.607 15.123 49.365v101.389c0 8.1.126 15.442.378 22.024a997.8 997.8 0 0 0 1.512 17.847c.757 5.317 1.387 10 1.891 14.05h-46.125c-.756-5.063-1.764-10.759-3.024-17.087-1.008-6.583-1.764-11.392-2.269-14.43-2.52 8.86-7.309 16.961-14.366 24.303-7.057 7.088-16.635 10.632-28.733 10.632Zm18.903-38.353c3.277 0 6.301-.759 9.074-2.278 3.024-1.772 5.671-3.798 7.939-6.076 2.269-2.278 3.907-4.304 4.915-6.076v-61.136a437.837 437.837 0 0 0-15.879 9.873c-4.789 3.291-9.073 6.961-12.854 11.012-3.529 3.797-6.301 7.974-8.318 12.531-1.764 4.557-2.646 9.873-2.646 15.949 0 8.101 1.512 14.556 4.537 19.366 3.276 4.557 7.687 6.835 13.232 6.835ZM327.118 552.582V245h51.039v307.582h-51.039ZM422.373 552.582V245h51.039v307.582h-51.039ZM507.421 552.582v-33.796l63.137-147.715h-57.844v-37.973H625v29.998L560.728 514.23h63.894v38.352H507.421Z"/></g><g fill="#fff" filter="url(#e)"><path d="M385.832 694c-7.954 0-14.21-1.574-18.767-4.723-4.469-3.148-7.597-7.422-9.384-12.819-1.787-5.488-2.681-11.785-2.681-18.892v-38.997c0-7.467.894-13.944 2.681-19.432 1.787-5.487 4.915-9.715 9.384-12.684 4.557-2.969 10.813-4.453 18.767-4.453 7.507 0 13.36 1.304 17.56 3.913 4.29 2.519 7.329 6.163 9.116 10.93 1.787 4.768 2.681 10.301 2.681 16.598v9.176h-19.035v-9.446c0-3.059-.179-5.847-.536-8.366-.269-2.519-1.118-4.498-2.547-5.938-1.341-1.529-3.709-2.294-7.105-2.294-3.396 0-5.898.81-7.507 2.429-1.519 1.53-2.502 3.644-2.949 6.343-.447 2.608-.67 5.577-.67 8.906v47.498c0 3.959.312 7.242.938 9.851.626 2.519 1.743 4.453 3.351 5.802 1.698 1.26 3.977 1.89 6.837 1.89 3.306 0 5.63-.765 6.97-2.294 1.43-1.62 2.324-3.734 2.682-6.343.357-2.608.536-5.532.536-8.771v-9.85h19.035v8.771c0 6.477-.849 12.234-2.547 17.272-1.698 4.948-4.692 8.861-8.981 11.74-4.201 2.789-10.144 4.183-17.829 4.183ZM458.493 694c-7.686 0-13.808-1.439-18.365-4.318-4.558-2.879-7.82-7.017-9.786-12.415-1.966-5.397-2.949-11.784-2.949-19.161v-40.887c0-7.376.983-13.674 2.949-18.891 1.966-5.308 5.228-9.356 9.786-12.145 4.557-2.789 10.679-4.183 18.365-4.183 7.864 0 14.03 1.394 18.499 4.183 4.558 2.789 7.819 6.837 9.786 12.145 2.055 5.217 3.083 11.515 3.083 18.891v41.022c0 7.287-1.028 13.629-3.083 19.026-1.967 5.308-5.228 9.446-9.786 12.415-4.469 2.879-10.635 4.318-18.499 4.318Zm0-14.708c3.306 0 5.719-.72 7.238-2.159 1.609-1.44 2.682-3.419 3.218-5.938.536-2.519.804-5.262.804-8.231v-50.333c0-3.058-.268-5.802-.804-8.231-.536-2.429-1.609-4.318-3.218-5.667-1.519-1.44-3.932-2.16-7.238-2.16-3.128 0-5.496.72-7.105 2.16-1.609 1.349-2.681 3.238-3.217 5.667s-.805 5.173-.805 8.231v50.333c0 2.969.224 5.712.671 8.231.536 2.519 1.608 4.498 3.217 5.938 1.609 1.439 4.022 2.159 7.239 2.159ZM504.536 692.516V583.214h25.604c8.847 0 15.729 1.215 20.644 3.644 5.004 2.429 8.534 6.162 10.59 11.2 2.145 5.038 3.217 11.425 3.217 19.161v39.942c0 7.917-1.072 14.529-3.217 19.837-2.056 5.217-5.541 9.131-10.456 11.739-4.826 2.519-11.484 3.779-19.974 3.779h-26.408Zm19.84-13.899h6.032c4.558 0 7.82-.81 9.786-2.429 1.966-1.619 3.172-3.958 3.619-7.017.447-3.149.67-6.972.67-11.47V615.87c0-4.408-.312-7.962-.938-10.66-.626-2.699-1.921-4.678-3.887-5.938-1.967-1.259-5.139-1.889-9.518-1.889h-5.764v81.234ZM579.154 692.516V583.214h45.578v14.034h-25.738v31.441h20.242v13.899h-20.242v36.164H625v13.764h-45.846Z"/></g></g><defs><linearGradient id="b" x1="602.697" x2="607.058" y1="295.178" y2="773.384" gradientUnits="userSpaceOnUse"><stop stop-color="#FF1D33"/><stop offset="1" stop-color="#470101"/></linearGradient><linearGradient id="c" x1="517.28" x2="521.546" y1="88.176" y2="549.155" gradientUnits="userSpaceOnUse"><stop stop-color="#470101"/><stop offset="1" stop-color="#FF1D33"/></linearGradient><filter id="d" width="655" height="341" x="-10" y="235" color-interpolation-filters="sRGB" filterUnits="userSpaceOnUse"><feFlood flood-opacity="0" result="BackgroundImageFix"/><feColorMatrix in="SourceAlpha" result="hardAlpha" values="0 0 0 0 0 0 0 0 0 0 0 0 0 0 0 0 0 0 127 0"/><feOffset dx="5" dy="5"/><feGaussianBlur stdDeviation="7.5"/><feComposite in2="hardAlpha" operator="out"/><feColorMatrix values="0 0 0 0 0 0 0 0 0 0 0 0 0 0 0 0 0 0 0.1 0"/><feBlend in2="BackgroundImageFix" result="effect1_dropShadow_2_106"/><feBlend in="SourceGraphic" in2="effect1_dropShadow_2_106" result="shape"/></filter><filter id="e" width="300" height="142" x="345" y="572" color-interpolation-filters="sRGB" filterUnits="userSpaceOnUse"><feFlood flood-opacity="0" result="BackgroundImageFix"/><feColorMatrix in="SourceAlpha" result="hardAlpha" values="0 0 0 0 0 0 0 0 0 0 0 0 0 0 0 0 0 0 127 0"/><feOffset dx="5" dy="5"/><feGaussianBlur stdDeviation="7.5"/><feComposite in2="hardAlpha" operator="out"/><feColorMatrix values="0 0 0 0 0 0 0 0 0 0 0 0 0 0 0 0 0 0 0.1 0"/><feBlend in2="BackgroundImageFix" result="effect1_dropShadow_2_106"/><feBlend in="SourceGraphic" in2="effect1_dropShadow_2_106" result="shape"/></filter><clipPath id="a"><path fill="#fff" d="M0 0h800v800H0z"/></clipPath></defs></svg>